<svg version="1.1" viewBox="0 0 84 89" xmlns="http://www.w3.org/2000/svg">
  <g fill="none" fill-rule="evenodd">
    <g transform="translate(-679 -29)" fill="#000">
      <g transform="translate(658 29)">
        <g transform="translate(21)">
          <path
            d="m40.964 23.892c3.1486 0 5.3789-0.94953 6.954-2.6191v1.309c0 0.45829 0.36149 0.81892 0.8203 0.81892h3.7725c0.46113 0 0.8203-0.36062 0.8203-0.81892v-10.635c0-0.46003-0.35917-0.81834-0.8203-0.81834h-10.302c-0.45881 0-0.81857 0.35831-0.81857 0.81834v3.0751c0 0.45771 0.35975 0.81834 0.81857 0.81834h5.3476c-1.6389 2.1268-3.7725 2.6839-5.5759 2.6839-3.8055 0-6.5607-2.7168-6.5607-6.4802 0-3.6005 2.7552-6.5791 6.3962-6.5791 2.8224 0 4.5922 1.409 5.7404 3.2404 0.099641 0.16413 0.26417 0.59006 0.8539 0.42535l4.5928-1.242c0.59032-0.16529 0.45881-0.623 0.36149-0.85244-1.6742-4.3518-6.333-7.0368-11.58-7.0368-7.1197 0-12.533 5.303-12.533 11.947 0 6.6421 5.0858 11.945 11.712 11.945"/>
          <path
            d="m26.239 56.649c-0.21434-0.36698-0.67953-0.51551-1.0764-0.28781l-5.668 3.2398-2.2668-3.9449c-2.3827-4.1477-6.9303-4.9441-10.678-2.911-3.6444 2.0846-5.3192 6.4779-2.9041 10.681l4.8036 8.3487c0.22651 0.39761 0.72066 0.53284 1.0885 0.31901l18.565-10.62c0.39741-0.2277 0.50458-0.70333 0.27401-1.1021l-2.1371-3.723zm-15.852 8.1684l-1.7634-3.0699c-0.78728-1.3633-0.37192-2.8833 0.96687-3.6478 1.337-0.76517 2.8606-0.35311 3.6734 0.99287l1.7634 3.067-4.6403 2.6579z"/>
          <path
            d="m20.783 41.402l6.6962-13.891c0.19812-0.4161 0.027228-0.89809-0.38524-1.094l-3.4011-1.6326c-0.41305-0.19649-0.89446-0.028318-1.0943 0.38201l-4.4937 9.3236-15.078-7.2327c-0.41305-0.20227-0.89619-0.031786-1.0966 0.38085l-1.8474 3.8357c-0.19639 0.41264-0.029545 0.89173 0.38582 1.09l19.248 9.2352c0.38524 0.18609 0.86375 0.015604 1.0671-0.39703"/>
          <path
            d="m83.185 31.151l-3.5118-9.9755c-0.17495-0.49355-0.61175-0.65247-1.0138-0.51146l-20.181 7.0726c-0.43448 0.15084-0.62392 0.60046-0.47272 1.0304l3.8594 10.963c1.673 4.7557 5.8383 6.2104 9.0564 5.0851 1.8868-0.6623 3.919-2.2082 3.9764-5.5926 1.647 1.7141 3.7134 1.7517 5.2619 1.209 2.4134-0.84608 5.0041-3.6623 3.0257-9.2803m-14.016 7.7898c-1.3011 0.45598-2.805-0.1624-3.393-1.8309l-1.782-5.0632 4.8593-1.7026 1.7837 5.0655c0.58568 1.6685-0.16916 3.0751-1.468 3.5311m8.2036-3.9489c-1.0213 0.35831-2.3219 0.015604-2.9417-1.7465l-1.5236-4.3217 4.1496-1.4523 1.5195 4.3217c0.61928 1.7615-0.17901 2.8393-1.2038 3.1988"/>
          <path
            d="m78.223 59.95c-0.35743-0.28492-0.86375-0.22944-1.154 0.12714l-3.7487 4.6783-13.066-10.427c-0.35743-0.28723-0.86201-0.23175-1.1522 0.12714l-2.7847 3.4756c-0.28966 0.35484-0.2323 0.86226 0.12513 1.1495l13.065 10.427-3.7505 4.6789c-0.28676 0.35658-0.23057 0.86168 0.12687 1.1489l2.9441 2.3504c0.36149 0.28781 0.87012 0.23001 1.154-0.12656l11.317-14.106c0.28618-0.36062 0.23057-0.86399-0.12687-1.1512l-2.9481-2.3521z"/>
          <path
            d="m52.676 74.098h-7.8427v-7.6153c0-0.46465-0.37771-0.84203-0.84406-0.84203h-3.9833c-0.46577 0-0.84348 0.37738-0.84348 0.84203v7.6153h-7.8433c-0.46634 0-0.84406 0.37623-0.84406 0.84203v4.3916c0 0.46465 0.37771 0.84203 0.84406 0.84203h7.8433v7.6141c0 0.46581 0.37771 0.84261 0.84348 0.84261h3.9833c0.46634 0 0.84406-0.37681 0.84406-0.84261v-7.6141h7.8427c0.46692 0 0.84406-0.37738 0.84406-0.84203v-4.3916c0-0.46581-0.37713-0.84203-0.84406-0.84203"/>
        </g>
      </g>
    </g>
  </g>
</svg>
